<svg xmlns="http://www.w3.org/2000/svg" viewBox="0 0 1947.991258 672.000000" preserveAspectRatio="xMidYMid meet" fill="currentColor">
<g transform="translate(-68.008742,672.000000) scale(0.100000,-0.100000)" fill="currentColor" stroke="none">
<path d="M19680 3360 l0 -3360 240 0 240 0 0 3360 0 3360 -240 0 -240 0 0
-3360z"/>
<path d="M6200 6100 c-8 -16 -21 -20 -58 -20 -42 0 -51 -4 -82 -40 -21 -24
-44 -40 -58 -40 -15 0 -52 -30 -112 -90 -60 -60 -90 -97 -90 -112 0 -14 -16
-37 -40 -58 -36 -31 -40 -40 -40 -82 0 -37 -4 -50 -20 -58 -17 -9 -20 -21 -20
-80 0 -59 -3 -71 -20 -80 -18 -10 -20 -21 -20 -120 0 -99 2 -110 20 -120 18
-9 20 -21 20 -100 0 -79 2 -91 20 -100 16 -8 20 -21 20 -60 0 -39 4 -52 20
-60 13 -7 20 -21 20 -40 0 -19 7 -33 20 -40 13 -7 20 -21 20 -40 0 -19 7 -33
20 -40 13 -7 20 -21 20 -40 0 -19 7 -33 20 -40 13 -7 20 -21 20 -40 0 -19 7
-33 20 -40 13 -7 20 -21 20 -40 0 -19 7 -33 20 -40 13 -7 20 -21 20 -40 0 -19
7 -33 20 -40 13 -7 20 -21 20 -40 0 -19 7 -33 20 -40 16 -8 20 -21 20 -58 0
-42 4 -51 40 -82 28 -25 40 -43 40 -62 0 -17 8 -31 20 -38 19 -10 21 -19 18
-83 l-3 -72 -52 -3 c-40 -2 -55 -8 -63 -23 -8 -15 -21 -19 -60 -19 -39 0 -52
-4 -60 -20 -7 -13 -21 -20 -40 -20 -19 0 -33 -7 -40 -20 -8 -16 -21 -20 -60
-20 -39 0 -52 -4 -60 -20 -7 -13 -21 -20 -40 -20 -19 0 -33 -7 -40 -20 -7 -13
-21 -20 -40 -20 -19 0 -33 -7 -40 -20 -7 -13 -21 -20 -40 -20 -19 0 -33 -7
-40 -20 -8 -16 -21 -20 -60 -20 -39 0 -52 -4 -60 -20 -8 -16 -21 -20 -60 -20
-39 0 -52 -4 -60 -20 -7 -13 -21 -20 -40 -20 -19 0 -33 -7 -40 -20 -8 -16 -21
-20 -60 -20 -39 0 -52 -4 -60 -20 -7 -13 -21 -20 -40 -20 -19 0 -33 -7 -40
-20 -6 -12 -21 -20 -36 -20 -34 0 -124 -90 -124 -124 0 -15 -8 -30 -20 -36
-12 -7 -20 -21 -20 -38 0 -19 -12 -37 -40 -62 -28 -25 -40 -43 -40 -62 0 -17
-8 -31 -20 -38 -12 -7 -20 -21 -20 -38 0 -19 -12 -37 -40 -62 -28 -25 -40 -43
-40 -62 0 -17 -8 -31 -20 -38 -12 -7 -20 -21 -20 -38 0 -19 -12 -37 -40 -62
-26 -23 -40 -44 -40 -60 0 -16 -14 -37 -40 -60 -28 -25 -40 -43 -40 -62 0 -17
-8 -31 -20 -38 -12 -7 -20 -21 -20 -38 0 -19 -12 -37 -40 -62 -28 -25 -40 -43
-40 -62 0 -17 -8 -31 -21 -38 -15 -9 -19 -19 -17 -43 3 -31 5 -32 55 -35 44
-3 53 0 63 17 7 14 21 21 40 21 19 0 33 7 40 20 7 13 21 20 40 20 19 0 33 7
40 20 8 16 21 20 60 20 39 0 52 4 60 20 8 16 21 20 60 20 39 0 52 4 60 20 7
13 21 20 40 20 19 0 33 7 40 20 7 13 21 20 40 20 19 0 33 7 40 20 8 16 21 20
60 20 39 0 52 4 60 20 7 13 21 20 40 20 19 0 33 7 40 20 7 13 21 20 40 20 19
0 33 7 40 20 8 16 21 20 60 20 39 0 52 4 60 20 8 16 21 20 60 20 39 0 52 4 60
20 7 13 21 20 40 20 19 0 33 7 40 20 7 13 21 20 40 20 19 0 33 7 40 20 8 16
21 20 60 20 39 0 52 4 60 20 8 16 21 20 60 20 39 0 52 4 60 20 7 13 21 20 40
20 19 0 33 7 40 20 7 13 21 20 40 20 19 0 33 7 40 20 8 16 21 20 60 20 39 0
52 4 60 20 8 16 21 20 60 20 39 0 52 4 60 20 7 13 21 20 40 20 19 0 33 7 40
20 7 13 21 20 40 20 19 0 33 7 40 20 7 13 21 20 40 20 19 0 33 7 40 20 8 16
21 20 60 20 39 0 52 4 60 20 7 13 21 20 40 20 19 0 33 7 40 20 8 16 21 20 60
20 39 0 52 4 60 20 8 16 21 20 60 20 39 0 52 4 60 20 7 13 21 20 40 20 19 0
33 7 40 20 7 13 21 20 40 20 19 0 33 7 40 20 8 16 21 20 60 20 39 0 52 4 60
20 8 16 21 20 60 20 39 0 52 4 60 20 7 13 21 20 40 20 19 0 33 7 40 20 7 13
21 20 40 20 19 0 33 7 40 20 8 16 21 20 60 20 39 0 52 4 60 20 8 16 21 20 60
20 39 0 52 4 60 20 9 17 21 20 80 20 59 0 71 3 80 20 10 18 23 20 163 22 l152
3 3 72 c3 64 1 73 -18 83 -16 9 -20 21 -20 60 0 39 -4 52 -20 60 -12 6 -20 21
-20 36 0 18 -29 53 -110 134 -81 81 -116 110 -134 110 -15 0 -30 8 -36 20 -7
13 -21 20 -40 20 -19 0 -33 7 -40 20 -10 19 -21 20 -240 20 -221 0 -230 -1
-240 -21 -9 -15 -19 -19 -43 -17 -28 3 -32 7 -35 35 -2 20 -11 37 -23 43 -12
7 -19 21 -19 40 0 19 -7 33 -20 40 -13 7 -20 21 -20 40 0 19 -7 33 -20 40 -13
7 -20 21 -20 40 0 19 -7 33 -20 40 -13 7 -20 21 -20 40 0 19 -7 33 -20 40 -13
7 -20 21 -20 40 0 19 -7 33 -20 40 -13 7 -20 21 -20 40 0 19 -7 33 -20 40 -12
7 -20 21 -20 38 0 19 -12 37 -40 62 -36 31 -40 40 -40 82 0 37 -4 50 -20 58
-13 7 -20 21 -20 40 0 19 -7 33 -20 40 -13 7 -20 21 -20 40 0 19 -7 33 -20 40
-13 7 -20 21 -20 40 0 19 -7 33 -20 40 -13 7 -20 21 -20 40 0 19 -7 33 -20 40
-16 8 -20 21 -20 58 0 42 -4 51 -40 82 -28 25 -40 43 -40 62 0 17 -8 31 -20
38 -13 7 -20 21 -20 40 0 19 -7 33 -20 40 -16 8 -20 21 -20 58 0 42 -4 51 -40
82 -28 25 -40 43 -40 62 0 17 -8 31 -20 38 -12 6 -20 21 -20 36 0 15 -12 38
-29 55 -35 34 -75 38 -91 9z"/>
<path d="M9360 6100 c-9 -17 -21 -20 -80 -20 -59 0 -71 -3 -80 -20 -8 -16 -21
-20 -60 -20 -39 0 -52 -4 -60 -20 -7 -12 -21 -20 -38 -20 -19 0 -37 -12 -62
-40 -21 -24 -44 -40 -58 -40 -33 0 -242 -211 -242 -244 0 -15 -8 -30 -20 -36
-13 -7 -20 -21 -20 -40 0 -19 -7 -33 -20 -40 -13 -7 -20 -21 -20 -40 0 -19 -7
-33 -20 -40 -16 -8 -20 -21 -20 -60 0 -39 -4 -52 -20 -60 -17 -9 -20 -21 -20
-80 0 -59 -3 -71 -20 -80 -20 -11 -20 -21 -20 -1020 0 -999 0 -1009 20 -1020
18 -9 20 -21 20 -100 0 -79 2 -91 20 -100 13 -7 20 -21 20 -40 0 -19 7 -33 20
-40 13 -7 20 -21 20 -40 0 -19 7 -33 20 -40 13 -7 20 -21 20 -40 0 -19 7 -33
20 -40 12 -6 20 -21 20 -36 0 -35 249 -284 284 -284 15 0 30 -8 36 -20 7 -13
21 -20 40 -20 19 0 33 -7 40 -20 7 -13 21 -20 40 -20 19 0 33 -7 40 -20 9 -17
21 -20 80 -20 59 0 71 -3 80 -20 11 -20 21 -20 980 -20 959 0 969 0 980 20 9
17 21 20 78 20 66 0 68 1 102 40 25 28 43 40 62 40 17 0 31 8 38 20 6 12 21
20 36 20 19 0 43 17 84 60 36 37 66 60 80 60 29 0 80 52 80 82 0 14 15 36 40
58 26 23 40 44 40 60 0 16 14 37 40 60 36 31 40 40 40 82 0 37 4 50 20 58 18
9 20 21 20 100 0 79 2 91 20 100 20 11 20 19 18 723 l-3 712 -1015 0 -1015 0
-3 -368 -2 -368 29 -30 c35 -34 75 -38 91 -9 7 13 21 20 40 20 19 0 33 -7 40
-20 7 -13 21 -20 40 -20 19 0 33 7 40 20 9 17 21 20 80 20 59 0 71 -3 80 -20
10 -19 21 -20 160 -20 139 0 150 1 160 20 7 13 21 20 40 20 20 0 31 -6 35 -20
3 -11 13 -20 20 -20 8 0 19 9 25 20 6 11 17 20 25 20 7 0 17 -9 20 -20 9 -27
52 -26 76 3 l19 22 18 -22 c11 -12 32 -23 48 -25 24 -2 29 -8 32 -35 2 -21 10
-34 23 -38 25 -8 24 -29 -3 -49 l-23 -16 23 -16 c27 -20 28 -41 2 -49 -18 -6
-20 -15 -20 -115 0 -99 -2 -110 -20 -120 -12 -6 -20 -21 -20 -36 0 -33 -90
-124 -122 -124 -14 0 -36 -15 -58 -40 l-35 -40 -487 0 c-477 0 -488 0 -498
-20 -7 -13 -21 -20 -40 -20 -19 0 -33 7 -40 20 -9 17 -21 20 -80 20 -59 0 -71
3 -80 20 -6 12 -21 20 -36 20 -35 0 -204 169 -204 204 0 15 -8 30 -20 36 -20
11 -20 21 -20 798 l0 787 40 35 c24 21 40 44 40 58 0 15 24 47 70 92 65 66 72
70 114 70 35 0 48 5 56 20 11 20 23 20 1063 22 l1052 3 0 435 0 435 -1232 3
c-1224 2 -1232 2 -1243 -18z"/>
<path d="M12428 6090 l-28 -29 0 -1465 c0 -1455 0 -1465 20 -1476 18 -9 20
-21 20 -100 0 -79 2 -91 20 -100 16 -8 20 -21 20 -58 0 -42 4 -51 40 -82 26
-23 40 -44 40 -60 0 -16 14 -37 40 -60 25 -22 40 -44 40 -58 0 -31 91 -122
122 -122 14 0 36 -15 58 -40 23 -26 44 -40 60 -40 16 0 37 -14 60 -40 25 -28
43 -40 62 -40 17 0 31 -8 38 -20 9 -17 21 -20 80 -20 59 0 71 -3 80 -20 11
-20 19 -20 1203 -18 l1192 3 3 408 2 408 -29 30 -29 29 -966 0 c-955 0 -965 0
-976 20 -8 15 -21 20 -56 20 -41 0 -50 5 -94 50 -31 30 -50 58 -50 72 0 14
-15 36 -40 58 -36 31 -40 40 -40 82 0 37 -4 50 -20 58 -18 10 -20 21 -20 120
0 99 2 110 20 120 16 8 20 21 20 60 0 39 -4 52 -20 60 -19 10 -20 21 -20 160
0 139 1 150 20 160 13 7 20 21 20 40 0 19 -7 33 -20 40 -19 10 -20 21 -20 160
0 139 1 150 20 160 13 7 20 21 20 40 0 19 -7 33 -20 40 -16 8 -20 21 -20 60 0
39 4 52 20 60 18 9 20 21 20 100 0 79 -2 91 -20 100 -19 10 -20 21 -20 220 0
199 1 210 20 220 18 10 20 21 20 120 0 99 -2 110 -20 120 -13 7 -20 21 -20 40
0 19 7 33 20 40 18 10 20 21 20 120 0 98 -2 110 -20 120 -16 8 -20 23 -22 83
l-3 72 -410 2 -410 2 -27 -29z"/>
<path d="M16520 6100 c-8 -16 -21 -20 -60 -20 -39 0 -52 -4 -60 -20 -7 -13
-21 -20 -40 -20 -19 0 -33 -7 -40 -20 -6 -12 -21 -20 -36 -20 -35 0 -204 -169
-204 -204 0 -15 -8 -30 -20 -36 -13 -7 -20 -21 -20 -40 0 -19 -7 -33 -20 -40
-20 -11 -20 -21 -20 -1520 0 -1499 0 -1509 20 -1520 12 -6 20 -21 20 -36 0
-35 249 -284 284 -284 15 0 30 -8 36 -20 8 -16 21 -20 60 -20 39 0 52 -4 60
-20 11 -20 19 -20 1363 -18 l1352 3 3 408 2 408 -29 30 -29 29 -1046 0 c-1035
0 -1045 0 -1056 20 -6 12 -21 20 -36 20 -33 0 -84 51 -84 84 0 15 -8 30 -20
36 -20 11 -20 21 -20 585 0 454 3 575 13 575 20 0 67 -56 67 -80 0 -14 22 -44
60 -80 40 -38 60 -66 60 -81 0 -15 15 -37 40 -59 26 -23 40 -44 40 -60 0 -16
14 -37 40 -60 24 -21 40 -44 40 -58 0 -15 30 -52 90 -112 l89 -90 721 0 722 0
29 29 29 30 -2 348 -3 348 -1015 5 -1015 5 -3 272 c-2 264 -2 272 18 283 12 6
20 21 20 36 0 33 51 84 84 84 15 0 30 8 36 20 11 20 21 20 1056 20 l1046 0 29
29 29 29 0 382 0 382 -29 29 -29 29 -1306 0 c-1295 0 -1305 0 -1316 -20z"/>
<path d="M3758 6060 c-13 -20 -24 -20 -1320 -20 -1297 0 -1307 0 -1318 -20 -7
-13 -21 -20 -40 -20 -19 0 -33 -7 -40 -20 -6 -12 -21 -20 -36 -20 -33 0 -244
-209 -244 -242 0 -14 -16 -37 -40 -58 l-40 -35 0 -1427 c0 -1417 0 -1427 20
-1438 16 -8 20 -21 20 -60 0 -39 4 -52 20 -60 13 -7 20 -21 20 -40 0 -19 7
-33 20 -40 12 -6 20 -21 20 -36 0 -33 129 -164 162 -164 14 0 37 -16 58 -40
31 -36 40 -40 82 -40 37 0 50 -4 58 -20 11 -20 19 -20 1343 -18 l1332 3 3 408
2 408 -29 30 -29 29 -1042 0 -1041 0 -49 50 c-34 33 -50 57 -50 74 0 15 -8 30
-20 36 -20 11 -20 19 -18 543 l3 532 28 3 c33 4 87 -45 87 -78 0 -14 23 -44
60 -80 43 -41 60 -65 60 -84 0 -15 8 -30 20 -36 12 -6 20 -21 20 -36 0 -19 17
-43 60 -84 37 -36 60 -66 60 -79 0 -13 21 -43 50 -72 l49 -49 768 2 768 3 3
328 2 328 -29 30 -29 29 -862 0 -862 0 -19 -22 -19 -23 -19 23 c-16 18 -29 22
-81 22 -55 0 -65 3 -91 29 l-29 29 0 226 c0 215 1 226 20 236 12 6 20 21 20
36 0 34 90 124 124 124 15 0 30 8 36 20 11 20 23 20 1043 22 l1032 3 3 408 2
409 -27 29 c-33 34 -39 35 -55 9z"/>
<path d="M7558 3300 c-10 -15 -24 -20 -60 -20 -37 0 -50 -4 -58 -20 -7 -13
-21 -20 -40 -20 -19 0 -33 -7 -40 -20 -8 -16 -21 -20 -60 -20 -39 0 -52 -4
-60 -20 -8 -16 -21 -20 -60 -20 -39 0 -52 -4 -60 -20 -7 -13 -21 -20 -40 -20
-19 0 -33 -7 -40 -20 -7 -13 -21 -20 -40 -20 -19 0 -33 -7 -40 -20 -7 -13 -21
-20 -40 -20 -19 0 -33 -7 -40 -20 -8 -15 -21 -20 -56 -20 -41 0 -50 -5 -96
-51 l-50 -50 41 -38 c37 -34 41 -43 41 -84 0 -36 4 -49 20 -57 12 -7 20 -21
20 -38 0 -19 12 -37 40 -62 36 -31 40 -40 40 -82 0 -37 4 -50 20 -58 13 -7 20
-21 20 -40 0 -19 7 -33 20 -40 12 -6 20 -21 20 -36 0 -17 16 -41 50 -75 l49
-49 528 2 528 3 3 48 c3 46 1 51 -37 86 -28 26 -41 46 -41 64 0 16 -8 30 -20
37 -16 8 -20 21 -20 60 0 39 -4 52 -20 60 -12 7 -20 21 -20 38 0 19 -12 37
-40 62 -28 25 -40 43 -40 62 0 17 -8 31 -20 38 -16 8 -20 21 -20 60 0 39 -4
52 -20 60 -12 7 -20 21 -20 38 0 19 -12 37 -40 62 -36 31 -40 40 -40 82 0 37
-4 50 -20 58 -12 6 -20 21 -20 36 0 16 -17 42 -48 74 -27 28 -52 50 -55 50 -4
0 -12 -9 -19 -20z"/>
<path d="M2600 1420 c-8 -16 -21 -20 -60 -20 -39 0 -52 -4 -60 -20 -6 -12 -21
-20 -36 -20 -33 0 -84 -51 -84 -84 0 -15 -8 -30 -20 -36 -17 -9 -20 -21 -20
-80 0 -59 3 -71 20 -80 12 -6 20 -21 20 -36 0 -17 16 -41 50 -74 49 -50 49
-50 114 -50 55 0 67 -3 76 -20 9 -17 21 -20 76 -20 59 0 68 -3 95 -29 16 -16
29 -39 29 -51 0 -12 -13 -35 -29 -51 l-29 -29 -143 0 -142 0 -38 42 -38 43
-50 -52 c-29 -30 -51 -62 -51 -73 0 -30 53 -80 84 -80 15 0 30 -8 36 -20 10
-19 21 -20 220 -20 197 0 210 1 220 19 6 12 23 21 43 23 28 3 32 7 35 35 2 20
11 37 23 43 12 7 19 21 19 40 0 19 7 33 20 40 13 7 20 21 20 40 0 19 -7 33
-20 40 -15 8 -20 21 -20 56 0 37 -6 51 -29 75 -17 17 -40 29 -55 29 -15 0 -30
8 -36 20 -9 18 -21 20 -100 20 -79 0 -91 2 -100 20 -6 12 -21 20 -36 20 -26 0
-124 86 -124 108 0 7 15 12 35 12 24 0 37 6 45 20 10 18 21 20 120 20 100 0
110 -2 120 -21 10 -17 19 -20 63 -17 51 3 52 4 55 35 2 20 11 37 23 44 15 8
19 19 17 42 -3 31 -5 32 -55 35 -40 2 -55 8 -63 23 -7 12 -21 19 -40 19 -19 0
-33 7 -40 20 -9 17 -21 20 -80 20 -59 0 -71 -3 -80 -20z"/>
<path d="M9760 1420 c-9 -17 -21 -20 -80 -20 -58 0 -71 -3 -80 -19 -6 -12 -23
-21 -43 -23 -27 -3 -32 -7 -35 -33 -3 -19 -18 -43 -43 -66 l-39 -36 0 -242 0
-242 90 -89 89 -90 161 0 161 0 89 90 90 89 0 225 c0 215 -1 226 -20 236 -12
6 -20 21 -20 36 0 17 -21 45 -70 94 -65 66 -72 70 -114 70 -35 0 -48 5 -56 20
-7 13 -21 20 -40 20 -19 0 -33 -7 -40 -20z m131 -209 l29 -29 0 -202 0 -202
-30 -29 c-29 -29 -31 -30 -117 -27 l-88 3 -3 32 c-2 20 -11 37 -23 43 -18 10
-19 23 -19 196 l0 185 28 29 c25 27 32 29 110 30 79 0 85 -2 113 -29z"/>
<path d="M5868 1370 c-36 -37 -35 -64 1 -101 28 -27 34 -29 111 -29 77 0 83
-2 111 -29 l29 -29 2 -309 3 -308 75 0 75 0 5 335 5 335 109 3 c104 3 109 4
137 32 37 36 37 64 0 101 l-29 29 -304 0 -303 -1 -27 -29z"/>
<path d="M13147 1370 l-27 -29 2 -388 3 -388 75 0 75 0 3 152 c2 140 4 153 22
163 27 15 27 66 -1 80 -17 10 -20 19 -17 63 l3 52 35 0 c32 0 35 -3 38 -32 2
-20 11 -37 23 -43 12 -7 19 -21 19 -40 0 -19 7 -33 20 -40 12 -7 20 -21 20
-38 0 -19 12 -37 40 -62 28 -25 40 -43 40 -62 0 -17 8 -31 20 -38 13 -7 20
-21 20 -40 0 -19 7 -33 19 -40 12 -6 21 -23 23 -43 l3 -32 115 0 115 0 0 415
0 415 -75 0 -75 0 -3 -277 c-2 -213 -5 -278 -15 -278 -21 0 -67 57 -67 84 0
15 -8 30 -20 36 -13 7 -20 21 -20 40 0 19 -7 33 -20 40 -13 7 -20 21 -20 40 0
19 -7 33 -20 40 -12 7 -20 21 -20 38 0 19 -12 37 -40 62 -35 31 -40 40 -40 78
0 35 -6 50 -29 73 -28 27 -34 29 -113 29 -78 -1 -85 -3 -111 -30z"/>
<path d="M16907 1370 l-27 -29 2 -388 3 -388 315 0 315 0 3 48 c3 41 -1 51
-26 77 l-30 30 -189 2 -188 3 0 75 0 75 149 3 148 3 30 29 c25 26 29 36 26 77
l-3 48 -175 5 -175 5 0 95 0 95 188 3 189 2 29 29 c37 37 37 65 0 102 l-29 29
-264 0 -263 -1 -28 -29z"/>
</g>
</svg>